# xmcd
#
# Track frame offsets:
# 150
# 15583
# 31213
# 43744
# 59763
# 75683
# 93679
# 109998
# 124191
# 136135
# 152988
# 168916
# 187819
# 206402
#
# Disc length: 2932 seconds
#
#
# Revision: 0
# Processed by: cddbd v1.5.2PL0 Copyright (c) Steve Scherf et al.
# Submitted via: FreeRIP 2.945 
#
DISCID=bb0b720e
DTITLE=A Música do Sul Vol 3 - 
DYEAR=1900
DGENRE=
TTITLE0=João Luiz Correa - De Rodeio em Rodeio
TTITLE1=Garotos de Ouro - Festa Campeira
TTITLE2=Tchê Guri - Tem que Ter Café
TTITLE3=Xirú Missioneiro - Mandinga do Tio Nanato
TTITLE4=Porca Véia - Rincão dos Mendes
TTITLE5=Luiz Marenco - Qundo o Verso Vem Pras Casa
TTITLE6=Elton Saldanha - Merceditas
TTITLE7=Leonardo - Apostando na Vanera
TTITLE8=Dante Ramon Ledesma - Baile da Minha Terra
TTITLE9=Bando Gaúcho - Bailando com a Mulata
TTITLE10=Grupo Balanço - Tapado de Carrapicho
TTITLE11=Lobisomen - Patrãozinho
TTITLE12=Marcelo do Tchê - Engano
TTITLE13=Os Veteranos - xucro de Viamão
EXTD=
EXTT0=
EXTT1=
EXTT2=
EXTT3=
EXTT4=
EXTT5=
EXTT6=
EXTT7=
EXTT8=
EXTT9=
EXTT10=
EXTT11=
EXTT12=
EXTT13=
PLAYORDER=
